<mxfile host="app.diagrams.net" modified="2022-10-03T09:06:13.079Z" agent="5.0 (Windows NT 10.0; Win64; x64) AppleWebKit/537.36 (KHTML, like Gecko) Chrome/105.0.0.0 Safari/537.36" etag="qkOK_IgKpqx15Unnqo5c" version="20.3.7" type="github">
  <diagram id="QLLtbIb7nJF5ZGO5QXJm" name="Page-1">
    <mxGraphModel dx="716" dy="394" grid="1" gridSize="10" guides="1" tooltips="1" connect="1" arrows="1" fold="1" page="1" pageScale="1" pageWidth="850" pageHeight="1100" math="0" shadow="0">
      <root>
        <mxCell id="0" />
        <mxCell id="1" parent="0" />
        <mxCell id="brCtlGlrx6s4_8Cmpg7A-1" value="JAVA i/o streams" style="text;html=1;strokeColor=none;fillColor=none;align=center;verticalAlign=middle;whiteSpace=wrap;rounded=0;" vertex="1" parent="1">
          <mxGeometry x="320" y="290" width="60" height="30" as="geometry" />
        </mxCell>
        <mxCell id="brCtlGlrx6s4_8Cmpg7A-3" style="edgeStyle=orthogonalEdgeStyle;rounded=0;orthogonalLoop=1;jettySize=auto;html=1;" edge="1" parent="1" source="brCtlGlrx6s4_8Cmpg7A-2">
          <mxGeometry relative="1" as="geometry">
            <mxPoint x="410" y="335" as="targetPoint" />
          </mxGeometry>
        </mxCell>
        <mxCell id="brCtlGlrx6s4_8Cmpg7A-2" value="INPUT" style="rounded=0;whiteSpace=wrap;html=1;" vertex="1" parent="1">
          <mxGeometry x="260" y="335" width="50" height="30" as="geometry" />
        </mxCell>
        <mxCell id="brCtlGlrx6s4_8Cmpg7A-4" value="OUTPUT" style="rounded=0;whiteSpace=wrap;html=1;" vertex="1" parent="1">
          <mxGeometry x="380" y="320" width="120" height="60" as="geometry" />
        </mxCell>
        <mxCell id="brCtlGlrx6s4_8Cmpg7A-6" style="edgeStyle=orthogonalEdgeStyle;rounded=0;orthogonalLoop=1;jettySize=auto;html=1;" edge="1" parent="1" source="brCtlGlrx6s4_8Cmpg7A-5">
          <mxGeometry relative="1" as="geometry">
            <mxPoint x="190" y="570" as="targetPoint" />
          </mxGeometry>
        </mxCell>
        <mxCell id="brCtlGlrx6s4_8Cmpg7A-8" style="edgeStyle=orthogonalEdgeStyle;rounded=0;orthogonalLoop=1;jettySize=auto;html=1;" edge="1" parent="1" source="brCtlGlrx6s4_8Cmpg7A-5">
          <mxGeometry relative="1" as="geometry">
            <mxPoint x="600" y="560" as="targetPoint" />
          </mxGeometry>
        </mxCell>
        <mxCell id="brCtlGlrx6s4_8Cmpg7A-5" value="Two Types of Streams" style="rounded=0;whiteSpace=wrap;html=1;" vertex="1" parent="1">
          <mxGeometry x="310" y="450" width="120" height="60" as="geometry" />
        </mxCell>
        <mxCell id="brCtlGlrx6s4_8Cmpg7A-7" value="Byte Stream" style="rounded=0;whiteSpace=wrap;html=1;" vertex="1" parent="1">
          <mxGeometry x="130" y="570" width="120" height="60" as="geometry" />
        </mxCell>
        <mxCell id="brCtlGlrx6s4_8Cmpg7A-9" value="Character Stream" style="rounded=0;whiteSpace=wrap;html=1;" vertex="1" parent="1">
          <mxGeometry x="540" y="560" width="120" height="60" as="geometry" />
        </mxCell>
        <mxCell id="brCtlGlrx6s4_8Cmpg7A-10" value="File Input" style="swimlane;" vertex="1" parent="1">
          <mxGeometry x="110" y="245" width="90" height="90" as="geometry" />
        </mxCell>
        <mxCell id="brCtlGlrx6s4_8Cmpg7A-11" value="ByteArray" style="swimlane;" vertex="1" parent="1">
          <mxGeometry x="110" y="350" width="90" height="80" as="geometry" />
        </mxCell>
        <mxCell id="brCtlGlrx6s4_8Cmpg7A-12" value="ObjectInput" style="swimlane;" vertex="1" parent="1">
          <mxGeometry x="210" y="260" width="80" height="60" as="geometry" />
        </mxCell>
      </root>
    </mxGraphModel>
  </diagram>
</mxfile>
